<?xml version="1.0" encoding="UTF-8" standalone="no"?>
<svg
   xmlns:dc="http://purl.org/dc/elements/1.1/"
   xmlns:cc="http://creativecommons.org/ns#"
   xmlns:rdf="http://www.w3.org/1999/02/22-rdf-syntax-ns#"
   xmlns:svg="http://www.w3.org/2000/svg"
   xmlns="http://www.w3.org/2000/svg"
   xmlns:sodipodi="http://sodipodi.sourceforge.net/DTD/sodipodi-0.dtd"
   xmlns:inkscape="http://www.inkscape.org/namespaces/inkscape"
   width="800px"
   height="600px"
   viewBox="0 0 800 600"
   version="1.1"
   id="SVGRoot"
   sodipodi:docname="ral-tal.svg"
   inkscape:version="1.0.1 (3bc2e813f5, 2020-09-07)">
  <defs
     id="defs105" />
  <sodipodi:namedview
     id="base"
     pagecolor="#ffffff"
     bordercolor="#666666"
     borderopacity="1.0"
     inkscape:pageopacity="0.0"
     inkscape:pageshadow="2"
     inkscape:zoom="0.7"
     inkscape:cx="290.40711"
     inkscape:cy="321.56793"
     inkscape:document-units="px"
     inkscape:current-layer="layer1"
     inkscape:document-rotation="0"
     showgrid="false"
     inkscape:window-width="1358"
     inkscape:window-height="741"
     inkscape:window-x="3"
     inkscape:window-y="22"
     inkscape:window-maximized="0" />
  <metadata
     id="metadata108">
    <rdf:RDF>
      <cc:Work
         rdf:about="">
        <dc:format>image/svg+xml</dc:format>
        <dc:type
           rdf:resource="http://purl.org/dc/dcmitype/StillImage" />
        <dc:title></dc:title>
      </cc:Work>
    </rdf:RDF>
  </metadata>
  <g
     inkscape:label="Layer 1"
     inkscape:groupmode="layer"
     id="layer1">
    <path
       style="fill:#000000;fill-opacity:1;stroke:none;stroke-width:0.971792"
       d="m 12.593971,582.20262 v -9.23204 h 9.717931 9.717941 V 490.85401 408.73743 L 21.221182,409.157 H 11.60091 v -9.62026 -9.62027 l 48.125063,0.35687 h 56.849937 v 18.46409 18.46408 h -8.74614 -8.74615 v -9.23204 -9.23204 H 74.302875 49.522131 v 82.11658 82.11657 h 9.717941 9.717941 v 9.23204 9.23205 H 40.775992 12.593971 Z"
       id="path73"
       sodipodi:nodetypes="ccccccccccccccccccccccccccccc" />
    <path
       style="fill:#000000;stroke-width:0.971792"
       d="M 146.70151,534.09883 V 476.763 h 48.1038 48.1038 v -34.0128 -34.01277 h -48.1038 -48.1038 v -9.23204 -9.23205 h 57.33585 57.33583 v 100.58067 100.58066 h -57.33583 -57.33585 z m 96.2076,0 V 495.22708 H 204.03736 165.1656 v 38.87175 38.87175 h 38.87176 38.87175 z"
       id="path75" />
    <path
       style="fill:#000000;stroke-width:0.971792"
       d="m 368.27052,457.32711 v -8.74615 h 33.04099 33.04099 v 8.74615 8.74615 h -33.04099 -33.04099 z"
       id="path79" />
    <path
       style="fill:#000000;stroke-width:0.971792"
       d="m 483.91399,500.08605 v -91.34862 h -14.57691 -14.57692 v -9.23204 -9.23205 h 14.57692 14.57691 v -33.52689 -33.52689 h 8.74613 8.74616 v 33.52689 33.52689 h 33.52688 33.52687 v 9.23205 9.23204 h -33.52687 -33.52688 v 82.11658 82.11657 h 19.43588 19.43588 v 9.23204 9.23205 h -28.18205 -28.182 z"
       id="path81" />
    <path
       style="fill:#000000;stroke-width:0.971792"
       d="M 599.55746,534.09883 V 476.763 h 48.10379 48.1038 v -34.0128 -34.01277 h -48.1038 -48.10379 v -9.23204 -9.23205 h 56.84991 56.84997 v 100.58067 100.58066 h -56.84997 -56.84991 z m 96.20759,0 v -38.87175 h -39.35768 -39.35762 v 38.87175 38.87175 h 39.35762 39.35768 z"
       id="path83" />
    <path
       style="fill:#000000;stroke-width:0.687161"
       d="m 281.61335,581.7614 v -8.24595 h 9.62027 9.62027 V 452.57493 331.63442 h -9.62027 -9.62027 v -8.93311 -8.9331 h 18.55337 18.55338 v 129.87362 129.87362 h 9.62027 9.62027 v 8.24595 8.24594 h -28.17365 -28.17364 z"
       id="path93" />
    <path
       style="fill:#000000;stroke-width:0.687161"
       d="m 733.76597,582.44856 v -8.93311 h 9.62027 9.62026 V 452.57493 331.63442 h -9.62026 -9.62027 v -8.93311 -8.9331 h 18.55336 18.55336 v 129.87362 129.87362 h 9.62027 9.62027 v 8.93311 8.9331 h -28.17364 -28.17362 z"
       id="path95" />
  </g>
</svg>
